<?xml version="1.0" encoding="UTF-8"?>
<svg id="Layer_2" data-name="Layer 2" xmlns="http://www.w3.org/2000/svg" viewBox="0 0 82.71 82.71">
  <defs>
    <style>
      .cls-1 {
        fill: #fff;
      }
    </style>
  </defs>
  <g id="Layer_1-2" data-name="Layer 1">
    <g>
      <path class="cls-1" d="m29.64,43.36v.3l11.32,11.22-2.82,2.82-14.74-14.74v-3.17l14.74-14.79,2.82,2.82-11.32,11.27v.3h29.67v3.97h-29.67Z"/>
      <path class="cls-1" d="m41.35,0c22.8,0,41.35,18.55,41.35,41.35s-18.55,41.35-41.35,41.35S0,64.16,0,41.35,18.55,0,41.35,0Zm0,80.23c21.44,0,38.88-17.44,38.88-38.88S62.79,2.47,41.35,2.47,2.47,19.92,2.47,41.35s17.44,38.88,38.88,38.88Z"/>
    </g>
  </g>
</svg>