<?xml version="1.0" encoding="UTF-8"?>
<svg id="Layer_2" data-name="Layer 2" xmlns="http://www.w3.org/2000/svg" xmlns:xlink="http://www.w3.org/1999/xlink" viewBox="0 0 172.62 44.84">
  <defs>
    <style>
      .cls-1 {
        fill: url(#linear-gradient);
      }

      .cls-2, .cls-3 {
        fill: #224234;
      }

      .cls-3 {
        font-family: RoobertTRIAL-Light, 'RoobertTRIAL Light';
        font-size: 9.46px;
        font-weight: 300;
      }

      .cls-4 {
        letter-spacing: 0em;
      }

      .cls-5 {
        letter-spacing: 0em;
      }

      .cls-6 {
        letter-spacing: 0em;
      }
    </style>
    <linearGradient id="linear-gradient" x1="0" y1="22.42" x2="51.7" y2="22.42" gradientUnits="userSpaceOnUse">
      <stop offset="0" stop-color="#224234" stop-opacity="0"/>
      <stop offset=".27" stop-color="#224234" stop-opacity=".22"/>
      <stop offset=".78" stop-color="#224234" stop-opacity=".78"/>
      <stop offset=".96" stop-color="#224234"/>
    </linearGradient>
  </defs>
  <g id="Layer_1-2" data-name="Layer 1">
    <g>
      <g>
        <text class="cls-3" transform="translate(64.65 33.22)"><tspan class="cls-5" x="0" y="0">C</tspan><tspan x="5.42" y="0">apital </tspan><tspan class="cls-6" x="29.51" y="0">M</tspan><tspan x="37.18" y="0">anagement</tspan></text>
        <g>
          <path class="cls-2" d="m64.63,3.33c1.53.18,1.95.71,1.95,2.3v13.31c0,1.9-.42,2.32-1.95,2.51v.18h6.86v-.18c-1.53-.18-1.98-.77-1.98-2.51V5.63c0-1.56.42-2.11,1.98-2.3v-.18h-6.86v.18Z"/>
          <path class="cls-2" d="m85.22,19.96v-7.71c0-2.56-1.24-4.25-3.88-4.25-2.11,0-3.67,1.29-4.12,2.9v-2.8l-4.46,1.19v.18c1.48-.11,1.85.13,1.85,1.69v8.79c0,1.03-.5,1.29-1.85,1.48v.18h6.15v-.18c-1.29-.16-1.69-.4-1.69-1.4v-8.79c.4-1.06,1.27-2.06,2.8-2.06,1.77,0,2.56,1.19,2.56,3.38v7.47c0,1-.4,1.24-1.69,1.4v.18h6.18v-.18c-1.35-.18-1.85-.45-1.85-1.48Z"/>
          <path class="cls-2" d="m100.69,19.96V2.35h-.05s0,0,0,0h-4.38c-1.31,0-2.49.79-2.98,2.01h4.65c.1.25.14.59.14,1.05v14.55c0,1.03-.5,1.29-1.85,1.48v.18h6.31v-.18c-1.35-.18-1.85-.45-1.85-1.48Z"/>
          <path class="cls-2" d="m110.49,19.81c-2.82,0-4.73-2.27-4.81-6.1h8.69c.11-3.59-1.93-5.7-4.83-5.7-3.7,0-5.81,3.04-5.81,7.23,0,4.44,2.53,6.79,5.68,6.79,2.51,0,4.51-1.56,5.12-5.07l-.18-.03c-.82,2.43-2.3,2.88-3.85,2.88Zm-1.53-11.22c1.61,0,2.88,1.35,2.77,4.62h-6.05c.08-2.83,1.37-4.62,3.27-4.62Z"/>
          <path class="cls-2" d="m122.9,19.81c-3.09,0-4.88-2.8-4.88-5.73,0-3.27,1.48-5.04,4.01-5.04s3.49,1.77,3.62,4.41h.18l.61-4.59c-1-.5-2.43-.84-4.01-.84-3.8,0-6.34,2.75-6.34,7.31,0,4.04,2.3,6.71,5.76,6.71,2.75,0,4.67-1.9,4.96-4.94l-.21-.05c-.48,2.09-2.01,2.77-3.7,2.77Z"/>
          <path class="cls-2" d="m134.04,20.7c-1.06,0-1.56-.9-1.56-2.22v-9.66h2.98v-.4h-2.98v-4.01h-.13c-.82,2.35-2.22,3.64-4.3,4.22v.18h1.82v10.11c0,1.93.98,3.09,2.83,3.09s3.04-1.14,3.62-3.04l-.18-.05c-.42,1.16-1,1.77-2.09,1.77Z"/>
          <path class="cls-2" d="m141.49,19.96v-11.78l-4.46,1.19v.18c1.48-.08,1.85.16,1.85,1.69v8.71c0,1.03-.5,1.29-1.85,1.48v.18h6.31v-.18c-1.35-.18-1.85-.45-1.85-1.48Z"/>
          <path class="cls-2" d="m140.03,6.42c.98,0,1.69-.74,1.69-1.66s-.71-1.66-1.69-1.66-1.66.71-1.66,1.66.71,1.66,1.66,1.66Z"/>
          <path class="cls-2" d="m150.94,8c-3.96,0-6.42,2.98-6.42,7.02s2.46,7,6.42,7,6.39-2.98,6.39-7-2.46-7.02-6.39-7.02Zm0,13.41c-2.53,0-3.59-2.27-3.59-6.39s1.06-6.42,3.59-6.42,3.56,2.27,3.56,6.42-1.06,6.39-3.56,6.39Z"/>
          <path class="cls-2" d="m170.77,19.96v-7.71c0-2.56-1.24-4.25-3.88-4.25-2.11,0-3.67,1.29-4.12,2.9v-2.8l-4.46,1.19v.18c1.48-.11,1.85.13,1.85,1.69v8.79c0,1.03-.5,1.29-1.85,1.48v.18h6.15v-.18c-1.29-.16-1.69-.4-1.69-1.4v-8.79c.4-1.06,1.27-2.06,2.8-2.06,1.77,0,2.56,1.19,2.56,3.38v7.47c0,1-.4,1.24-1.69,1.4v.18h6.18v-.18c-1.35-.18-1.85-.45-1.85-1.48Z"/>
          <path class="cls-2" d="m89.88,7.57s0,.04,0,.06v.77h-1.71v.4h1.74v11.17c0,1.03-.5,1.29-1.85,1.48v.18h6.84v-.18c-1.93-.13-2.38-.42-2.38-1.48v-11.17h2.59v-.4h-2.64v-1.04c0-1.31.14-1.99.43-2.44l.38-.56h-.06c-1.8,0-3.32,1.42-3.35,3.21Z"/>
        </g>
      </g>
      <path class="cls-1" d="m0,37.36h17.96c-2.85,4.64-7.91,7.47-13.35,7.47H0v-7.47Zm17.96,0h33.74v-7.47h-20.38c-5.45,0-10.5,2.83-13.35,7.47Zm5.25-14.95H0v7.47h9.86c5.45,0,10.5-2.83,13.35-7.47Zm0,0h28.48v-7.47h-15.13c-5.45,0-10.5,2.83-13.35,7.47Zm-8.1-7.47c5.45,0,10.5-2.83,13.35-7.47h0s-28.47,0-28.47,0v7.47h15.12ZM51.7,0h-9.87c-5.45,0-10.5,2.83-13.35,7.47h23.23V0Z"/>
    </g>
  </g>
</svg>