<?xml version="1.0" encoding="UTF-8"?><svg id="Layer_2" xmlns="http://www.w3.org/2000/svg" xmlns:xlink="http://www.w3.org/1999/xlink" viewBox="0 0 735.51 637.85"><defs><style>.cls-1{fill:url(#linear-gradient);}</style><linearGradient id="linear-gradient" x1="0" y1="318.92" x2="735.51" y2="318.92" gradientUnits="userSpaceOnUse"><stop offset="0" stop-color="#d2e9e4" stop-opacity="0"/><stop offset=".1" stop-color="#d1e8e3" stop-opacity=".06"/><stop offset=".29" stop-color="#cfe6e0" stop-opacity=".23"/><stop offset=".55" stop-color="#cbe4dc" stop-opacity=".5"/><stop offset=".86" stop-color="#c7e1d7" stop-opacity=".88"/><stop offset=".96" stop-color="#c6e0d6"/></linearGradient></defs><g id="Layer_1-2"><path class="cls-1" d="M0,531.54h255.57c-40.54,66.05-112.48,106.31-189.98,106.31H0v-106.31ZM255.57,531.54h479.93v-106.31h-289.95c-77.5,0-149.44,40.25-189.98,106.31ZM330.31,318.92H0v106.31h140.32c77.5,0,149.44-40.25,189.98-106.31ZM330.31,318.92h405.2v-106.31h-215.22c-77.5,0-149.44,40.25-189.98,106.31ZM215.06,212.62c77.5,0,149.44-40.25,189.98-106.31h0s-405.04,0-405.04,0v106.31h215.06ZM735.51,0h-140.48c-77.5,0-149.44,40.25-189.98,106.31h330.47V0Z"/></g></svg>