<?xml version="1.0" encoding="UTF-8"?>
<svg xmlns="http://www.w3.org/2000/svg" xmlns:xlink="http://www.w3.org/1999/xlink" viewBox="0 0 659.4 376.33">
  <defs>
    <style>
      .cls-1 {
        fill: url(#linear-gradient);
      }

      .cls-2 {
        isolation: isolate;
      }

      .cls-2, .cls-3 {
        fill: none;
      }

      .cls-4 {
        fill: #d2e8e3;
      }

      .cls-5 {
        fill: #5fb1b0;
      }

      .cls-3 {
        mix-blend-mode: screen;
      }
    </style>
    <linearGradient id="linear-gradient" x1="251.27" y1="68.02" x2="408.13" y2="68.02" gradientUnits="userSpaceOnUse">
      <stop offset="0" stop-color="#d2e8e3" stop-opacity="0"/>
      <stop offset=".1" stop-color="#d2e8e3" stop-opacity=".06"/>
      <stop offset=".28" stop-color="#d2e8e3" stop-opacity=".22"/>
      <stop offset=".53" stop-color="#d2e8e3" stop-opacity=".49"/>
      <stop offset=".84" stop-color="#d2e8e3" stop-opacity=".85"/>
      <stop offset=".96" stop-color="#d2e8e3"/>
    </linearGradient>
  </defs>
  <g class="cls-2">
    <g id="Layer_2" data-name="Layer 2">
      <g id="Layer_1-2" data-name="Layer 1">
        <g>
          <path class="cls-1" d="m251.27,113.36h54.51c-8.65,14.09-23.99,22.67-40.52,22.67h-13.99v-22.67Zm54.51,0h102.35v-22.67h-61.84c-16.53,0-31.87,8.59-40.52,22.67Zm15.94-45.34h-70.44v22.67h29.93c16.53,0,31.87-8.59,40.52-22.67Zm0,0h86.42v-22.67h-45.9c-16.53,0-31.87,8.59-40.52,22.67Zm-24.58-22.67c16.53,0,31.87-8.59,40.52-22.67h0s-86.38,0-86.38,0v22.67h45.86ZM408.13,0h-29.96c-16.53,0-31.87,8.59-40.52,22.67h70.48V0Z"/>
          <g>
            <g>
              <path class="cls-5" d="m86.57,363.77c-2.73-1.43-4.91-3.57-6.56-6.42-1.65-2.85-2.47-6.33-2.47-10.43s.82-7.59,2.47-10.46c1.65-2.87,3.83-5.01,6.56-6.42,2.72-1.42,5.7-2.12,8.92-2.12,2.66,0,5.11.51,7.38,1.54,2.26,1.03,4.13,2.45,5.6,4.27,1.47,1.82,2.36,3.88,2.68,6.19h-4.72c-.21-1.49-.83-2.83-1.86-4.04-1.03-1.2-2.34-2.15-3.93-2.84s-3.33-1.04-5.2-1.04c-2.62,0-4.92.58-6.9,1.73-1.98,1.15-3.53,2.85-4.65,5.1-1.11,2.25-1.67,4.95-1.67,8.1s.56,5.85,1.67,8.1c1.12,2.25,2.66,3.95,4.65,5.1s4.28,1.73,6.9,1.73c1.91,0,3.67-.35,5.28-1.04,1.61-.69,2.93-1.64,3.96-2.84,1.03-1.2,1.63-2.55,1.8-4.04h4.67c-.28,2.3-1.14,4.36-2.58,6.19-1.43,1.82-3.29,3.25-5.57,4.27-2.28,1.03-4.79,1.54-7.51,1.54-3.22,0-6.19-.72-8.92-2.15Z"/>
              <path class="cls-5" d="m118.59,363.69c-1.7-1.49-2.55-3.43-2.55-5.84,0-2.58.96-4.65,2.89-6.18,1.93-1.54,4.52-2.31,7.78-2.31h6.16c.57,0,.97-.11,1.22-.32.25-.21.37-.53.37-.96,0-1.88-.64-3.37-1.91-4.49-1.27-1.12-3.03-1.67-5.26-1.67-1.95,0-3.61.52-4.99,1.57-1.38,1.04-2.12,2.31-2.23,3.8h-4.04c.14-1.7.73-3.23,1.78-4.59,1.04-1.36,2.41-2.43,4.09-3.21,1.68-.78,3.51-1.17,5.5-1.17,3.47,0,6.22.9,8.26,2.71,2.04,1.81,3.05,4.21,3.05,7.22v17.25h-4.25v-4.67c-.71,1.56-1.89,2.8-3.56,3.72-1.66.92-3.52,1.38-5.57,1.38-2.8,0-5.04-.74-6.74-2.23Zm13.64-3.74c1.49-1.58,2.23-3.74,2.23-6.5v-.64h-7.49c-2.02,0-3.62.44-4.8,1.33-1.19.88-1.78,2.11-1.78,3.66,0,1.35.5,2.43,1.51,3.26,1.01.83,2.36,1.25,4.06,1.25,2.69,0,4.78-.79,6.26-2.36Z"/>
              <path class="cls-5" d="m146.41,338.74h4.25v4.35c.85-1.45,2.09-2.61,3.72-3.48,1.63-.87,3.38-1.3,5.26-1.3,2.69,0,5,.6,6.93,1.8,1.93,1.2,3.4,2.85,4.41,4.94,1.01,2.09,1.51,4.44,1.51,7.06s-.5,4.97-1.51,7.06c-1.01,2.09-2.48,3.74-4.41,4.94-1.93,1.2-4.24,1.81-6.93,1.81-1.88,0-3.64-.44-5.28-1.33-1.65-.88-2.88-2.05-3.69-3.5v15.24h-4.25v-37.59Zm19.25,20.63c1.61-1.82,2.42-4.24,2.42-7.25s-.8-5.42-2.42-7.25c-1.61-1.82-3.76-2.73-6.45-2.73s-4.85.9-6.48,2.71c-1.63,1.8-2.44,4.23-2.44,7.27s.81,5.47,2.44,7.27c1.63,1.8,3.79,2.71,6.48,2.71s4.84-.91,6.45-2.73Z"/>
              <path class="cls-5" d="m183.25,327.75v5.95h-4.88v-5.95h4.88Zm-4.57,10.99h4.25v26.76h-4.25v-26.76Z"/>
              <path class="cls-5" d="m195.49,363.24c-1.5-1.5-2.26-3.55-2.26-6.13v-14.6h-5.58v-3.77h5.58v-8.55h4.25v8.55h8.23v3.77h-8.23v14.49c0,1.49.39,2.65,1.17,3.48.78.83,1.82,1.25,3.13,1.25h3.93v3.77h-4.09c-2.58,0-4.63-.75-6.13-2.26Z"/>
              <path class="cls-5" d="m212.34,363.69c-1.7-1.49-2.55-3.43-2.55-5.84,0-2.58.96-4.65,2.89-6.18,1.93-1.54,4.52-2.31,7.78-2.31h6.16c.57,0,.97-.11,1.22-.32.25-.21.37-.53.37-.96,0-1.88-.64-3.37-1.91-4.49-1.27-1.12-3.03-1.67-5.26-1.67-1.95,0-3.61.52-4.99,1.57-1.38,1.04-2.12,2.31-2.23,3.8h-4.04c.14-1.7.73-3.23,1.78-4.59,1.04-1.36,2.41-2.43,4.09-3.21,1.68-.78,3.51-1.17,5.5-1.17,3.47,0,6.22.9,8.26,2.71,2.04,1.81,3.05,4.21,3.05,7.22v17.25h-4.25v-4.67c-.71,1.56-1.89,2.8-3.56,3.72-1.66.92-3.52,1.38-5.57,1.38-2.8,0-5.04-.74-6.74-2.23Zm13.64-3.74c1.49-1.58,2.23-3.74,2.23-6.5v-.64h-7.49c-2.02,0-3.62.44-4.8,1.33-1.19.88-1.78,2.11-1.78,3.66,0,1.35.5,2.43,1.51,3.26,1.01.83,2.36,1.25,4.06,1.25,2.69,0,4.78-.79,6.26-2.36Z"/>
              <path class="cls-5" d="m240.16,327.75h4.25v37.75h-4.25v-37.75Z"/>
              <path class="cls-5" d="m265.75,328.33h5.95l12.21,31.06,12.26-31.06h5.89v37.16h-4.41v-29.62l-11.79,29.62h-3.93l-11.79-29.62v29.62h-4.41v-37.16Z"/>
              <path class="cls-5" d="m311.57,363.69c-1.7-1.49-2.55-3.43-2.55-5.84,0-2.58.96-4.65,2.89-6.18,1.93-1.54,4.52-2.31,7.78-2.31h6.16c.57,0,.97-.11,1.22-.32.25-.21.37-.53.37-.96,0-1.88-.64-3.37-1.91-4.49s-3.03-1.67-5.26-1.67c-1.95,0-3.61.52-4.99,1.57-1.38,1.04-2.12,2.31-2.23,3.8h-4.04c.14-1.7.73-3.23,1.78-4.59,1.04-1.36,2.41-2.43,4.09-3.21,1.68-.78,3.51-1.17,5.5-1.17,3.47,0,6.22.9,8.25,2.71,2.04,1.81,3.05,4.21,3.05,7.22v17.25h-4.25v-4.67c-.71,1.56-1.89,2.8-3.56,3.72-1.66.92-3.52,1.38-5.58,1.38-2.8,0-5.04-.74-6.74-2.23Zm13.64-3.74c1.49-1.58,2.23-3.74,2.23-6.5v-.64h-7.49c-2.02,0-3.62.44-4.8,1.33-1.19.88-1.78,2.11-1.78,3.66,0,1.35.5,2.43,1.51,3.26,1.01.83,2.36,1.25,4.06,1.25,2.69,0,4.78-.79,6.26-2.36Z"/>
              <path class="cls-5" d="m339.39,338.74h4.25v5.15c.71-1.84,1.83-3.23,3.37-4.17,1.54-.94,3.37-1.41,5.5-1.41,3.01,0,5.42.99,7.25,2.97,1.82,1.98,2.73,4.6,2.73,7.86v16.35h-4.25v-15.66c0-2.3-.61-4.15-1.83-5.55-1.22-1.4-2.84-2.1-4.86-2.1-2.3,0-4.19.83-5.68,2.5-1.49,1.66-2.23,3.79-2.23,6.37v14.44h-4.25v-26.76Z"/>
              <path class="cls-5" d="m371.46,363.69c-1.7-1.49-2.55-3.43-2.55-5.84,0-2.58.96-4.65,2.89-6.18,1.93-1.54,4.52-2.31,7.78-2.31h6.16c.57,0,.97-.11,1.22-.32.25-.21.37-.53.37-.96,0-1.88-.64-3.37-1.91-4.49s-3.03-1.67-5.26-1.67c-1.95,0-3.61.52-4.99,1.57-1.38,1.04-2.12,2.31-2.23,3.8h-4.04c.14-1.7.73-3.23,1.78-4.59,1.04-1.36,2.41-2.43,4.09-3.21s3.51-1.17,5.5-1.17c3.47,0,6.22.9,8.26,2.71,2.04,1.81,3.05,4.21,3.05,7.22v17.25h-4.25v-4.67c-.71,1.56-1.89,2.8-3.56,3.72-1.66.92-3.52,1.38-5.57,1.38-2.8,0-5.04-.74-6.74-2.23Zm13.64-3.74c1.49-1.58,2.23-3.74,2.23-6.5v-.64h-7.49c-2.02,0-3.62.44-4.8,1.33s-1.78,2.11-1.78,3.66c0,1.35.5,2.43,1.51,3.26,1.01.83,2.36,1.25,4.06,1.25,2.69,0,4.78-.79,6.27-2.36Z"/>
              <path class="cls-5" d="m400.97,372.66h12.37c1.73,0,3.15-.58,4.25-1.72,1.1-1.15,1.65-2.63,1.65-4.43v-4.73c-.64,1.24-1.78,2.24-3.42,3-1.65.76-3.5,1.14-5.55,1.14-2.66,0-4.95-.6-6.88-1.81-1.93-1.2-3.4-2.85-4.41-4.94-1.01-2.09-1.51-4.44-1.51-7.06s.5-4.97,1.51-7.06c1.01-2.09,2.48-3.73,4.41-4.94,1.93-1.2,4.24-1.8,6.93-1.8,1.77,0,3.49.41,5.15,1.22,1.66.81,2.92,1.86,3.77,3.13v-3.93h4.25v27.93c0,2.87-.91,5.19-2.73,6.98-1.82,1.79-4.2,2.68-7.14,2.68h-12.64v-3.66Zm16.22-13.3c1.61-1.82,2.42-4.24,2.42-7.25s-.81-5.42-2.42-7.25c-1.61-1.82-3.76-2.73-6.45-2.73s-4.84.91-6.45,2.73c-1.61,1.82-2.42,4.24-2.42,7.25s.8,5.42,2.42,7.25,3.76,2.73,6.45,2.73,4.84-.91,6.45-2.73Z"/>
              <path class="cls-5" d="m436.04,364.04c-2-1.26-3.56-2.96-4.67-5.1-1.12-2.14-1.67-4.49-1.67-7.04s.52-4.91,1.57-6.98c1.04-2.07,2.52-3.69,4.43-4.86,1.91-1.17,4.16-1.75,6.74-1.75s4.76.54,6.64,1.62c1.88,1.08,3.32,2.58,4.33,4.49s1.51,4.05,1.51,6.42c0,.46-.04,1.08-.11,1.86h-20.92c.18,2.76,1.1,5.03,2.76,6.8,1.66,1.77,3.75,2.65,6.26,2.65,2.16,0,3.92-.45,5.28-1.35,1.36-.9,2.24-2.2,2.63-3.9h4.35c-.46,2.76-1.8,4.96-4.01,6.58-2.21,1.63-4.96,2.44-8.26,2.44-2.58,0-4.88-.63-6.88-1.88Zm14.52-14.79c-.18-2.26-.98-4.05-2.42-5.36-1.43-1.31-3.34-1.96-5.71-1.96s-4.12.63-5.58,1.88c-1.45,1.26-2.37,3.07-2.76,5.44h16.46Z"/>
              <path class="cls-5" d="m461.39,338.74h4.25v5.15c.53-1.7,1.51-3.05,2.95-4.06s3.16-1.51,5.18-1.51c2.16,0,4.04.5,5.65,1.51s2.65,2.42,3.11,4.22c.5-1.66,1.57-3.03,3.21-4.11,1.65-1.08,3.44-1.62,5.39-1.62,2.9,0,5.18.92,6.85,2.76,1.66,1.84,2.5,4.37,2.5,7.59v16.83h-4.25v-15.71c0-2.3-.54-4.16-1.62-5.58-1.08-1.42-2.56-2.12-4.43-2.12-1.45,0-2.72.42-3.8,1.25-1.08.83-1.91,1.93-2.5,3.29-.58,1.36-.88,2.82-.88,4.38v14.49h-4.25v-15.71c0-2.3-.53-4.16-1.59-5.58-1.06-1.42-2.53-2.12-4.41-2.12-1.42,0-2.66.42-3.74,1.25-1.08.83-1.91,1.93-2.5,3.29-.58,1.36-.88,2.82-.88,4.38v14.49h-4.25v-26.76Z"/>
              <path class="cls-5" d="m512.65,364.04c-2-1.26-3.56-2.96-4.67-5.1-1.12-2.14-1.67-4.49-1.67-7.04s.52-4.91,1.57-6.98c1.04-2.07,2.52-3.69,4.43-4.86,1.91-1.17,4.16-1.75,6.74-1.75s4.76.54,6.64,1.62c1.88,1.08,3.32,2.58,4.33,4.49s1.51,4.05,1.51,6.42c0,.46-.04,1.08-.11,1.86h-20.92c.18,2.76,1.1,5.03,2.76,6.8,1.66,1.77,3.75,2.65,6.26,2.65,2.16,0,3.92-.45,5.28-1.35,1.36-.9,2.24-2.2,2.63-3.9h4.35c-.46,2.76-1.8,4.96-4.01,6.58-2.21,1.63-4.96,2.44-8.26,2.44-2.58,0-4.88-.63-6.88-1.88Zm14.52-14.79c-.18-2.26-.98-4.05-2.42-5.36-1.43-1.31-3.34-1.96-5.71-1.96s-4.12.63-5.58,1.88c-1.45,1.26-2.37,3.07-2.76,5.44h16.46Z"/>
              <path class="cls-5" d="m537.95,338.74h4.25v5.15c.71-1.84,1.83-3.23,3.37-4.17,1.54-.94,3.37-1.41,5.5-1.41,3.01,0,5.42.99,7.25,2.97,1.82,1.98,2.73,4.6,2.73,7.86v16.35h-4.25v-15.66c0-2.3-.61-4.15-1.83-5.55-1.22-1.4-2.84-2.1-4.86-2.1-2.3,0-4.19.83-5.68,2.5-1.49,1.66-2.23,3.79-2.23,6.37v14.44h-4.25v-26.76Z"/>
              <path class="cls-5" d="m572.75,363.24c-1.5-1.5-2.26-3.55-2.26-6.13v-14.6h-5.58v-3.77h5.58v-8.55h4.25v8.55h8.23v3.77h-8.23v14.49c0,1.49.39,2.65,1.17,3.48.78.83,1.82,1.25,3.13,1.25h3.93v3.77h-4.09c-2.58,0-4.63-.75-6.13-2.26Z"/>
            </g>
            <g class="cls-3">
              <path class="cls-4" d="m0,186.99c9.35,1.13,11.93,4.35,11.93,14.03v81.25c0,11.61-2.58,14.19-11.93,15.32v1.13h41.92v-1.13c-9.35-1.13-12.09-4.68-12.09-15.32v-81.25c0-9.51,2.58-12.9,12.09-14.03v-1.13H0v1.13Z"/>
              <path class="cls-4" d="m125.75,288.55v-47.08c0-15.64-7.58-25.96-23.7-25.96-12.9,0-22.41,7.9-25.15,17.73v-17.09l-27.25,7.25v1.13c9.03-.65,11.29.81,11.29,10.32v53.69c0,6.29-3.06,7.9-11.29,9.03v1.13h37.56v-1.13c-7.9-.97-10.32-2.42-10.32-8.54v-53.69c2.42-6.45,7.74-12.57,17.09-12.57,10.8,0,15.64,7.25,15.64,20.64v45.62c0,6.13-2.42,7.58-10.32,8.54v1.13h37.73v-1.13c-8.22-1.13-11.29-2.74-11.29-9.03Z"/>
              <path class="cls-4" d="m220.23,288.55v-107.53l-.28.08v-.08h-26.72c-8,0-15.2,4.85-18.21,12.26h28.42c.59,1.53.83,3.62.83,6.44v88.83c0,6.29-3.06,7.9-11.29,9.03v1.13h38.53v-1.13c-8.22-1.13-11.29-2.74-11.29-9.03Z"/>
              <path class="cls-4" d="m280.04,287.59c-17.25,0-28.86-13.87-29.34-37.24h53.04c.65-21.93-11.77-34.82-29.5-34.82-22.57,0-35.47,18.54-35.47,44.17,0,27.09,15.48,41.43,34.66,41.43,15.32,0,27.57-9.51,31.28-30.95l-1.13-.16c-5,14.83-14.03,17.57-23.54,17.57Zm-9.35-68.52c9.83,0,17.57,8.22,16.93,28.21h-36.92c.48-17.25,8.38-28.21,19.99-28.21Z"/>
              <path class="cls-4" d="m355.82,287.59c-18.86,0-29.82-17.09-29.82-34.98,0-19.99,9.03-30.79,24.51-30.79s21.28,10.8,22.09,26.92h1.13l3.71-28.05c-6.13-3.06-14.83-5.16-24.51-5.16-23.22,0-38.69,16.77-38.69,44.66,0,24.67,14.03,40.95,35.15,40.95,16.77,0,28.54-11.61,30.31-30.15l-1.29-.32c-2.9,12.74-12.25,16.93-22.57,16.93Z"/>
              <path class="cls-4" d="m423.85,293.07c-6.45,0-9.51-5.48-9.51-13.54v-59.01h18.22v-2.42h-18.22v-24.51h-.81c-5,14.35-13.54,22.25-26.28,25.8v1.13h11.12v61.75c0,11.77,5.97,18.86,17.25,18.86s18.54-6.93,22.09-18.54l-1.13-.32c-2.58,7.09-6.13,10.8-12.74,10.8Z"/>
              <path class="cls-4" d="m469.32,288.55v-71.9l-27.25,7.25v1.13c9.03-.48,11.29.97,11.29,10.32v53.2c0,6.29-3.06,7.9-11.29,9.03v1.13h38.53v-1.13c-8.22-1.13-11.28-2.74-11.28-9.03Z"/>
              <path class="cls-4" d="m460.45,205.85c5.96,0,10.32-4.51,10.32-10.16s-4.35-10.16-10.32-10.16-10.16,4.35-10.16,10.16,4.35,10.16,10.16,10.16Z"/>
              <path class="cls-4" d="m527.04,215.52c-24.18,0-39.18,18.22-39.18,42.88s14.99,42.72,39.18,42.72,39.01-18.22,39.01-42.72-14.99-42.88-39.01-42.88Zm0,81.9c-15.48,0-21.93-13.86-21.93-39.02s6.45-39.18,21.93-39.18,21.76,13.87,21.76,39.18-6.45,39.02-21.76,39.02Z"/>
              <path class="cls-4" d="m648.11,288.55v-47.08c0-15.64-7.58-25.96-23.7-25.96-12.9,0-22.41,7.9-25.15,17.73v-17.09l-27.25,7.25v1.13c9.03-.65,11.29.81,11.29,10.32v53.69c0,6.29-3.06,7.9-11.29,9.03v1.13h37.56v-1.13c-7.9-.97-10.32-2.42-10.32-8.54v-53.69c2.42-6.45,7.74-12.57,17.09-12.57,10.8,0,15.64,7.25,15.64,20.64v45.62c0,6.13-2.42,7.58-10.32,8.54v1.13h37.73v-1.13c-8.22-1.13-11.29-2.74-11.29-9.03Z"/>
              <path class="cls-4" d="m154.22,212.89c0,.12,0,.24,0,.36v4.69h-10.41v2.42h10.64v68.2c0,6.29-3.06,7.9-11.29,9.03v1.13h41.76v-1.13c-11.77-.81-14.51-2.58-14.51-9.03v-68.2h15.8v-2.42h-16.15v-6.34c0-7.99.83-12.12,2.62-14.88l2.34-3.44h-.36c-10.97,0-20.28,8.64-20.44,19.61Z"/>
            </g>
          </g>
        </g>
      </g>
    </g>
  </g>
</svg>