<?xml version="1.0" encoding="UTF-8"?>
<svg xmlns="http://www.w3.org/2000/svg" xmlns:xlink="http://www.w3.org/1999/xlink" viewBox="0 0 186.93 31.14">
  <defs>
    <style>
      .cls-1 {
        fill: url(#linear-gradient);
      }

      .cls-2 {
        isolation: isolate;
      }

      .cls-2, .cls-3 {
        fill: none;
      }

      .cls-4 {
        fill: #d2e9e4;
      }

      .cls-3 {
        mix-blend-mode: screen;
      }
    </style>
    <linearGradient id="linear-gradient" x1="0" y1="15.57" x2="35.91" y2="15.57" gradientUnits="userSpaceOnUse">
      <stop offset="0" stop-color="#d2e9e4" stop-opacity="0"/>
      <stop offset=".1" stop-color="#d2e9e4" stop-opacity=".06"/>
      <stop offset=".28" stop-color="#d2e9e4" stop-opacity=".22"/>
      <stop offset=".53" stop-color="#d2e9e4" stop-opacity=".49"/>
      <stop offset=".83" stop-color="#d2e9e4" stop-opacity=".84"/>
      <stop offset=".96" stop-color="#d2e9e4"/>
    </linearGradient>
  </defs>
  <g class="cls-2">
    <g id="Layer_2" data-name="Layer 2">
      <g id="Layer_1-2" data-name="Layer 1">
        <g>
          <g class="cls-3">
            <path class="cls-4" d="m45.81.41c2,.24,2.55.93,2.55,3v18.42c0,2.48-.55,3.04-2.55,3.28v.24h8.97v-.24c-2-.24-2.59-1-2.59-3.28V3.41c0-2.04.55-2.76,2.59-3v-.24h-8.97v.24Z"/>
            <path class="cls-4" d="m72.72,23.18v-10.08c0-3.35-1.62-5.55-5.07-5.55-2.76,0-4.8,1.69-5.38,3.8v-3.66l-5.83,1.55v.24c1.93-.14,2.42.17,2.42,2.21v11.49c0,1.35-.66,1.69-2.42,1.93v.24h8.04v-.24c-1.69-.21-2.21-.52-2.21-1.83v-11.49c.52-1.38,1.66-2.69,3.66-2.69,2.31,0,3.35,1.55,3.35,4.42v9.76c0,1.31-.52,1.62-2.21,1.83v.24h8.07v-.24c-1.76-.24-2.42-.59-2.42-1.93Z"/>
            <path class="cls-4" d="m92.94,23.18V.16l-.06.02v-.02h-5.72c-1.71,0-3.25,1.04-3.9,2.62h6.08c.13.33.18.78.18,1.38v19.01c0,1.35-.66,1.69-2.42,1.93v.24h8.25v-.24c-1.76-.24-2.42-.59-2.42-1.93Z"/>
            <path class="cls-4" d="m105.75,22.97c-3.69,0-6.18-2.97-6.28-7.97h11.35c.14-4.69-2.52-7.45-6.31-7.45-4.83,0-7.59,3.97-7.59,9.45,0,5.8,3.31,8.87,7.42,8.87,3.28,0,5.9-2.04,6.69-6.62l-.24-.03c-1.07,3.17-3,3.76-5.04,3.76Zm-2-14.66c2.1,0,3.76,1.76,3.62,6.04h-7.9c.1-3.69,1.79-6.04,4.28-6.04Z"/>
            <path class="cls-4" d="m121.96,22.97c-4.04,0-6.38-3.66-6.38-7.49,0-4.28,1.93-6.59,5.24-6.59s4.55,2.31,4.73,5.76h.24l.79-6c-1.31-.66-3.17-1.1-5.24-1.1-4.97,0-8.28,3.59-8.28,9.56,0,5.28,3,8.76,7.52,8.76,3.59,0,6.11-2.48,6.49-6.45l-.28-.07c-.62,2.73-2.62,3.62-4.83,3.62Z"/>
            <path class="cls-4" d="m136.52,24.15c-1.38,0-2.04-1.17-2.04-2.9v-12.63h3.9v-.52h-3.9V2.86h-.17c-1.07,3.07-2.9,4.76-5.62,5.52v.24h2.38v13.21c0,2.52,1.28,4.04,3.69,4.04s3.97-1.48,4.73-3.97l-.24-.07c-.55,1.52-1.31,2.31-2.73,2.31Z"/>
            <path class="cls-4" d="m146.25,23.18V7.79l-5.83,1.55v.24c1.93-.1,2.42.21,2.42,2.21v11.39c0,1.35-.66,1.69-2.42,1.93v.24h8.25v-.24c-1.76-.24-2.42-.59-2.42-1.93Z"/>
            <path class="cls-4" d="m144.36,5.48c1.28,0,2.21-.97,2.21-2.17s-.93-2.17-2.21-2.17-2.17.93-2.17,2.17.93,2.17,2.17,2.17Z"/>
            <path class="cls-4" d="m158.61,7.55c-5.18,0-8.38,3.9-8.38,9.18s3.21,9.14,8.38,9.14,8.35-3.9,8.35-9.14-3.21-9.18-8.35-9.18Zm0,17.53c-3.31,0-4.69-2.97-4.69-8.35s1.38-8.38,4.69-8.38,4.66,2.97,4.66,8.38-1.38,8.35-4.66,8.35Z"/>
            <path class="cls-4" d="m184.52,23.18v-10.08c0-3.35-1.62-5.55-5.07-5.55-2.76,0-4.8,1.69-5.38,3.8v-3.66l-5.83,1.55v.24c1.93-.14,2.42.17,2.42,2.21v11.49c0,1.35-.66,1.69-2.42,1.93v.24h8.04v-.24c-1.69-.21-2.21-.52-2.21-1.83v-11.49c.52-1.38,1.66-2.69,3.66-2.69,2.31,0,3.35,1.55,3.35,4.42v9.76c0,1.31-.52,1.62-2.21,1.83v.24h8.07v-.24c-1.76-.24-2.42-.59-2.42-1.93Z"/>
            <path class="cls-4" d="m78.82,6.99s0,.05,0,.08v1h-2.23v.52h2.28v14.6c0,1.35-.66,1.69-2.42,1.93v.24h8.94v-.24c-2.52-.17-3.11-.55-3.11-1.93v-14.6h3.38v-.52h-3.46v-1.36c0-1.71.18-2.59.56-3.18l.5-.74h-.08c-2.35,0-4.34,1.85-4.37,4.2Z"/>
          </g>
          <path class="cls-1" d="m0,25.95h12.48c-1.98,3.23-5.49,5.19-9.28,5.19H0v-5.19Zm12.48,0h23.43v-5.19h-14.16c-3.78,0-7.3,1.97-9.28,5.19Zm3.65-10.38H0v5.19h6.85c3.78,0,7.3-1.97,9.28-5.19Zm0,0h19.79v-5.19h-10.51c-3.78,0-7.3,1.97-9.28,5.19Zm-5.63-5.19c3.78,0,7.3-1.97,9.28-5.19h0s-19.78,0-19.78,0v5.19h10.5ZM35.91,0h-6.86c-3.78,0-7.3,1.97-9.28,5.19h16.14V0Z"/>
        </g>
      </g>
    </g>
  </g>
</svg>