<?xml version="1.0" encoding="UTF-8"?>
<svg xmlns="http://www.w3.org/2000/svg" viewBox="0 0 659.4 120.11">
  <defs>
    <style>
      .cls-1 {
        isolation: isolate;
      }

      .cls-1, .cls-2 {
        fill: #ffffff;
      }

      .cls-3 {
        fill: #ffffff;
      }

      .cls-2 {
        mix-blend-mode: screen;
      }
    </style>
  </defs>
  <g class="cls-1">
    <g id="Layer_2" data-name="Layer 2">
      <g id="Layer_1-2" data-name="Layer 1">
        <g class="cls-2">
          <path class="cls-3" d="m0,5.97c9.35,1.13,11.93,4.35,11.93,14.03v81.25c0,11.61-2.58,14.19-11.93,15.32v1.13h41.92v-1.13c-9.35-1.13-12.09-4.68-12.09-15.32V19.99c0-9.51,2.58-12.9,12.09-14.03v-1.13H0v1.13Z"/>
          <path class="cls-3" d="m125.75,107.53v-47.08c0-15.64-7.58-25.96-23.7-25.96-12.9,0-22.41,7.9-25.15,17.73v-17.09l-27.25,7.25v1.13c9.03-.65,11.29.81,11.29,10.32v53.69c0,6.29-3.06,7.9-11.29,9.03v1.13h37.56v-1.13c-7.9-.97-10.32-2.42-10.32-8.54v-53.69c2.42-6.45,7.74-12.57,17.09-12.57,10.8,0,15.64,7.25,15.64,20.64v45.62c0,6.13-2.42,7.58-10.32,8.54v1.13h37.73v-1.13c-8.22-1.13-11.29-2.74-11.29-9.03Z"/>
          <path class="cls-3" d="m220.23,107.53V0l-.28.08v-.08h-26.72c-8,0-15.2,4.85-18.21,12.26h28.42c.59,1.53.83,3.62.83,6.44v88.83c0,6.29-3.06,7.9-11.29,9.03v1.13h38.53v-1.13c-8.22-1.13-11.29-2.74-11.29-9.03Z"/>
          <path class="cls-3" d="m280.04,106.57c-17.25,0-28.86-13.87-29.34-37.24h53.04c.65-21.93-11.77-34.82-29.5-34.82-22.57,0-35.47,18.54-35.47,44.17,0,27.09,15.48,41.43,34.66,41.43,15.32,0,27.57-9.51,31.28-30.95l-1.13-.16c-5,14.83-14.03,17.57-23.54,17.57Zm-9.35-68.52c9.83,0,17.57,8.22,16.93,28.21h-36.92c.48-17.25,8.38-28.21,19.99-28.21Z"/>
          <path class="cls-3" d="m355.82,106.57c-18.86,0-29.82-17.09-29.82-34.98,0-19.99,9.03-30.79,24.51-30.79s21.28,10.8,22.09,26.92h1.13l3.71-28.05c-6.13-3.06-14.83-5.16-24.51-5.16-23.22,0-38.69,16.77-38.69,44.66,0,24.67,14.03,40.95,35.15,40.95,16.77,0,28.54-11.61,30.31-30.15l-1.29-.32c-2.9,12.74-12.25,16.93-22.57,16.93Z"/>
          <path class="cls-3" d="m423.85,112.05c-6.45,0-9.51-5.48-9.51-13.54v-59.01h18.22v-2.42h-18.22V12.58h-.81c-5,14.35-13.54,22.25-26.28,25.8v1.13h11.12v61.75c0,11.77,5.97,18.86,17.25,18.86s18.54-6.93,22.09-18.54l-1.13-.32c-2.58,7.09-6.13,10.8-12.74,10.8Z"/>
          <path class="cls-3" d="m469.32,107.53V35.63l-27.25,7.25v1.13c9.03-.48,11.29.97,11.29,10.32v53.2c0,6.29-3.06,7.9-11.29,9.03v1.13h38.53v-1.13c-8.22-1.13-11.28-2.74-11.28-9.03Z"/>
          <path class="cls-3" d="m460.45,24.83c5.96,0,10.32-4.51,10.32-10.16s-4.35-10.16-10.32-10.16-10.16,4.35-10.16,10.16,4.35,10.16,10.16,10.16Z"/>
          <path class="cls-3" d="m527.04,34.5c-24.18,0-39.18,18.22-39.18,42.88s14.99,42.72,39.18,42.72,39.01-18.22,39.01-42.72-14.99-42.88-39.01-42.88Zm0,81.9c-15.48,0-21.93-13.86-21.93-39.02s6.45-39.18,21.93-39.18,21.76,13.87,21.76,39.18-6.45,39.02-21.76,39.02Z"/>
          <path class="cls-3" d="m648.11,107.53v-47.08c0-15.64-7.58-25.96-23.7-25.96-12.9,0-22.41,7.9-25.15,17.73v-17.09l-27.25,7.25v1.13c9.03-.65,11.29.81,11.29,10.32v53.69c0,6.29-3.06,7.9-11.29,9.03v1.13h37.56v-1.13c-7.9-.97-10.32-2.42-10.32-8.54v-53.69c2.42-6.45,7.74-12.57,17.09-12.57,10.8,0,15.64,7.25,15.64,20.64v45.62c0,6.13-2.42,7.58-10.32,8.54v1.13h37.73v-1.13c-8.22-1.13-11.29-2.74-11.29-9.03Z"/>
          <path class="cls-3" d="m154.22,31.87c0,.12,0,.24,0,.36v4.69h-10.41v2.42h10.64v68.2c0,6.29-3.06,7.9-11.29,9.03v1.13h41.76v-1.13c-11.77-.81-14.51-2.58-14.51-9.03V39.34h15.8v-2.42h-16.15v-6.34c0-7.99.83-12.12,2.62-14.88l2.34-3.44h-.36c-10.97,0-20.28,8.64-20.44,19.61Z"/>
        </g>
      </g>
    </g>
  </g>
</svg>